<?xml version="1.0" standalone="no"?>
<!DOCTYPE svg PUBLIC "-//W3C//DTD SVG 20010904//EN"
 "http://www.w3.org/TR/2001/REC-SVG-20010904/DTD/svg10.dtd">
<svg version="1.0" xmlns="http://www.w3.org/2000/svg"
 width="512.000000pt" height="512.000000pt" viewBox="0 0 512.000000 512.000000"
 preserveAspectRatio="xMidYMid meet">
<metadata>
Created by potrace 1.14, written by Peter Selinger 2001-2017
</metadata>
<g transform="translate(0.000000,512.000000) scale(0.100000,-0.100000)"
fill="#000000" stroke="none">
<path d="M1250 4224 c-89 -30 -195 -83 -265 -133 -59 -42 -151 -123 -178 -157
-19 -24 -19 -25 -1 -39 18 -14 17 -14 -7 -15 -38 0 -60 -22 -133 -129 -63 -93
-72 -121 -35 -121 10 0 53 -11 96 -25 92 -29 106 -30 127 -9 26 25 20 44 -13
44 -17 0 -33 5 -37 12 -18 29 5 108 40 137 24 20 21 -5 -4 -36 -24 -31 -25
-42 -4 -71 14 -20 17 -21 49 -8 35 15 70 45 77 67 3 9 7 9 11 2 4 -6 -2 -22
-13 -36 -11 -14 -20 -32 -20 -40 0 -9 -4 -17 -8 -19 -4 -1 -17 -21 -28 -42
-32 -63 -59 -77 -122 -65 -29 5 -85 23 -125 39 -83 34 -80 36 -124 -57 -36
-77 -15 -98 42 -43 l31 30 120 -48 c65 -27 146 -61 179 -75 33 -14 105 -40
160 -57 55 -17 109 -35 120 -39 47 -21 107 -41 121 -41 9 0 27 -9 41 -19 13
-11 30 -18 37 -15 8 3 16 -2 19 -10 4 -9 14 -12 26 -9 12 3 36 -2 53 -10 18
-9 46 -19 63 -23 16 -4 35 -13 42 -20 7 -7 32 -15 55 -19 71 -11 227 -64 324
-111 51 -24 103 -44 117 -44 13 0 36 -9 50 -20 14 -11 34 -20 45 -20 31 0 191
-60 230 -86 19 -13 49 -24 66 -24 17 0 40 -7 50 -15 11 -8 28 -15 38 -15 10 0
29 -7 42 -15 25 -17 131 -48 159 -47 10 1 34 -10 54 -24 20 -13 41 -24 48 -24
6 0 23 -13 38 -28 21 -22 27 -38 27 -75 0 -52 -27 -131 -62 -183 -30 -44 -67
-45 -155 -4 -35 17 -73 30 -82 30 -10 0 -45 12 -77 26 -33 14 -66 28 -74 29
-13 3 -94 35 -165 64 -62 26 -78 31 -100 31 -14 0 -34 -9 -45 -20 -26 -26 -40
-18 -40 23 0 26 -6 34 -27 44 -65 27 -74 27 -98 -3 -19 -24 -25 -26 -38 -16
-8 7 -17 26 -20 42 -4 19 -17 35 -36 44 -29 15 -30 15 -51 -14 -28 -39 -40
-38 -40 3 0 35 -25 67 -52 67 -9 0 -31 6 -49 14 -57 23 -79 28 -79 17 0 -10
64 -36 90 -36 9 0 16 -11 18 -27 3 -24 0 -28 -20 -27 -13 0 -50 10 -83 22 -59
21 -60 23 -63 62 -6 74 -81 102 -122 45 -34 -48 -60 -35 -60 30 0 41 -10 60
-30 60 -11 0 -22 5 -25 11 -4 5 -12 8 -18 6 -7 -2 -30 6 -52 17 -22 12 -56 28
-75 35 -19 7 -53 21 -75 31 -63 29 -203 80 -218 80 -7 0 -37 11 -65 25 -29 14
-56 25 -62 25 -9 0 -66 23 -102 41 -10 5 -38 9 -63 9 -25 0 -45 5 -45 10 0 6
-15 10 -34 10 -26 0 -36 5 -41 20 -7 23 -25 27 -25 6 0 -8 -5 -18 -11 -22 -9
-5 -10 1 -5 22 4 16 12 31 17 35 5 3 7 13 3 22 -3 10 -2 23 3 30 12 14 36 107
30 113 -22 22 -102 -234 -132 -421 -4 -28 -1 -46 9 -60 12 -17 12 -21 -1 -30
-16 -12 -19 -43 -7 -89 5 -20 3 -27 -4 -22 -15 9 -26 -54 -18 -99 4 -21 13
-35 21 -35 20 0 19 -29 -1 -37 -14 -5 -16 -18 -10 -89 16 -210 96 -398 217
-509 63 -58 104 -80 198 -110 45 -15 142 -54 214 -87 73 -33 146 -66 162 -73
30 -13 1027 -397 1310 -505 241 -92 414 -159 505 -195 117 -48 224 -75 290
-75 57 0 75 -8 137 -61 51 -44 143 -94 219 -119 56 -19 91 -24 184 -24 140 0
204 17 298 81 80 53 102 77 102 109 0 21 2 23 19 12 16 -9 26 -5 66 28 55 45
155 162 155 181 0 20 -33 15 -67 -9 -16 -13 -55 -50 -86 -83 -31 -33 -57 -55
-57 -50 0 6 22 33 50 60 27 27 50 52 50 56 0 4 -19 -2 -42 -13 -28 -14 -47
-17 -56 -11 -20 12 -17 27 5 31 10 1 28 5 39 7 22 5 78 55 113 103 15 20 20
23 21 10 0 -9 -3 -18 -7 -20 -13 -5 -55 -69 -50 -75 3 -2 24 8 46 23 32 21 45
24 53 16 19 -19 26 -15 64 45 34 53 35 59 23 82 -8 14 -33 31 -57 40 l-44 16
-27 -33 c-14 -18 -30 -30 -34 -26 -4 4 3 18 15 31 13 14 18 27 12 32 -5 4 -74
29 -154 56 -145 47 -220 81 -220 98 0 5 -10 17 -22 27 -13 10 -20 22 -16 26
10 9 160 -11 223 -30 185 -56 334 -96 356 -96 24 0 27 4 33 52 8 60 49 148 88
190 20 22 32 27 51 23 26 -7 29 -2 61 98 24 72 22 87 -14 87 -23 0 -30 5 -30
19 0 20 29 143 35 150 5 5 95 -17 190 -46 146 -45 137 -43 133 -27 -3 14 -52
47 -126 86 -12 6 -21 17 -18 24 3 7 -15 21 -42 33 -78 34 -100 60 -68 78 23
14 36 50 36 102 0 55 -7 62 -35 31 -10 -11 -24 -20 -30 -20 -14 0 -25 53 -25
123 0 27 -5 57 -11 69 -9 16 -4 30 25 77 54 88 57 101 40 167 -49 191 -184
345 -352 406 -83 30 -257 36 -382 13 -52 -10 -107 -20 -123 -22 -22 -4 -26 -2
-21 11 7 19 -18 82 -58 141 -29 45 -60 58 -213 91 -44 9 -159 43 -255 76 -96
32 -207 69 -246 82 -39 13 -86 30 -105 38 -19 9 -83 31 -144 51 -60 20 -189
63 -285 97 -96 34 -195 68 -220 76 -25 8 -94 31 -155 50 -60 20 -180 61 -265
91 -85 29 -168 58 -185 64 -224 74 -335 114 -376 134 -63 33 -131 32 -229 -1z
m-270 -394 c0 -5 9 -10 20 -10 18 0 19 -3 10 -20 -14 -26 -28 -25 -32 2 -2 16
-12 25 -33 29 l-30 7 33 1 c17 0 32 -3 32 -9z m-208 -42 c-7 -7 -12 -8 -12 -2
0 14 12 26 19 19 2 -3 -1 -11 -7 -17z m343 -18 c3 -5 1 -10 -4 -10 -6 0 -11 5
-11 10 0 6 2 10 4 10 3 0 8 -4 11 -10z m549 -50 c62 -21 48 -32 -19 -17 -55
13 -75 23 -75 38 0 11 6 9 94 -21z m-944 -16 c-18 -21 -24 -10 -9 18 8 14 14
18 17 10 2 -7 -2 -19 -8 -28z m760 6 c0 -5 -4 -10 -10 -10 -5 0 -10 5 -10 10
0 6 5 10 10 10 6 0 10 -4 10 -10z m-50 -56 c-18 -21 -24 -10 -9 18 8 14 14 18
17 10 2 -7 -2 -19 -8 -28z m-40 -44 c0 -11 -7 -20 -15 -20 -18 0 -19 12 -3 28
16 16 18 15 18 -8z m344 -11 c18 -14 24 -25 18 -31 -12 -12 -74 30 -66 44 8
13 19 10 48 -13z m-382 -61 c-9 -19 -17 -55 -17 -83 l0 -50 165 -53 c91 -29
181 -59 200 -67 78 -30 618 -208 665 -219 28 -6 55 -14 61 -18 15 -10 133 -38
160 -38 13 0 24 8 27 20 3 11 12 20 21 20 23 0 20 -14 -9 -48 -37 -44 -58 -41
-315 44 -79 26 -192 62 -300 95 -58 17 -109 35 -115 39 -5 4 -32 13 -60 19
-27 7 -59 17 -70 21 -11 4 -56 19 -100 33 -44 14 -100 32 -125 41 -25 9 -85
28 -134 42 -108 32 -141 60 -132 114 3 19 12 40 21 46 8 6 15 15 15 19 0 9 42
52 52 54 4 1 0 -14 -10 -31z m218 7 c0 -8 -4 -15 -10 -15 -5 0 -7 -7 -4 -15 4
-10 0 -15 -11 -15 -10 0 -14 5 -11 13 3 6 9 20 12 30 8 21 24 23 24 2z m355
-15 c10 -11 15 -23 12 -27 -4 -3 -18 6 -31 20 -15 16 -20 27 -12 27 7 0 21 -9
31 -20z m-205 -20 c0 -5 -4 -10 -10 -10 -5 0 -10 5 -10 10 0 6 5 10 10 10 6 0
10 -4 10 -10z m-20 -42 c0 -5 -7 -8 -15 -8 -17 0 -18 2 -9 25 5 13 8 14 15 3
5 -7 9 -16 9 -20z m-175 11 c4 -5 0 -18 -8 -27 -8 -9 -12 -23 -10 -29 6 -16
-13 -17 -23 -2 -3 6 -1 16 5 22 6 6 11 19 11 29 0 20 15 24 25 7z m283 -22 c9
-2 6 -3 -8 -2 -17 2 -31 -5 -43 -21 -16 -21 -16 -28 -5 -52 14 -29 51 -41 73
-22 8 7 15 7 19 1 10 -16 -31 -32 -72 -29 -32 3 -37 7 -40 32 -5 39 3 66 30
99 17 21 24 25 26 13 2 -8 11 -17 20 -19z m320 1 c5 -25 -21 -23 -44 3 -19 21
-19 21 11 17 19 -2 31 -10 33 -20z m332 -7 c0 -5 -7 -11 -15 -15 -15 -5 -20 5
-8 17 9 10 23 9 23 -2z m-796 -52 c-8 -17 -23 -29 -34 -29 -26 0 -25 14 2 50
16 22 25 27 34 19 11 -9 11 -16 -2 -40z m238 29 c-9 -9 -15 -9 -24 0 -9 9 -7
12 12 12 19 0 21 -3 12 -12z m328 2 c0 -5 -7 -10 -15 -10 -8 0 -15 5 -15 10 0
6 7 10 15 10 8 0 15 -4 15 -10z m-320 -120 c-6 -12 -14 -19 -17 -17 -2 3 1 15
7 27 6 12 14 19 17 17 2 -3 -1 -15 -7 -27z m310 17 c0 -19 -37 -50 -49 -42 -6
3 -11 11 -11 17 0 7 6 6 15 -2 12 -10 15 -9 15 7 0 11 3 23 7 26 11 11 23 8
23 -6z m338 -4 c5 -18 -16 -16 -35 3 -15 14 -14 16 7 12 13 -1 25 -9 28 -15z
m-538 -48 c0 -8 -4 -15 -10 -15 -5 0 -7 7 -4 15 4 8 8 15 10 15 2 0 4 -7 4
-15z m110 10 c0 -11 -45 -45 -59 -45 -11 0 -6 9 14 25 28 23 45 31 45 20z
m837 -20 c-4 -8 -11 -15 -17 -15 -7 0 -7 6 0 21 13 23 26 19 17 -6z m-232 5
c3 -5 -3 -10 -14 -10 -11 0 -23 5 -26 10 -3 6 3 10 14 10 11 0 23 -4 26 -10z
m-88 -16 c-3 -3 -12 -4 -19 -1 -8 3 -5 6 6 6 11 1 17 -2 13 -5z m103 -25 c0
-11 -4 -17 -10 -14 -5 3 -10 13 -10 21 0 8 5 14 10 14 6 0 10 -9 10 -21z
m-550 -14 c0 -8 -4 -15 -10 -15 -5 0 -10 7 -10 15 0 8 5 15 10 15 6 0 10 -7
10 -15z m66 -17 c-9 -12 -16 -19 -16 -15 0 11 24 47 28 42 2 -2 -3 -14 -12
-27z m254 23 c0 -6 -4 -13 -10 -16 -5 -3 -10 1 -10 9 0 9 5 16 10 16 6 0 10
-4 10 -9z m71 -24 c-16 -16 -26 0 -10 19 9 11 15 12 17 4 2 -6 -1 -17 -7 -23z
m135 -34 c-10 -10 -19 5 -10 18 6 11 8 11 12 0 2 -7 1 -15 -2 -18z m-236 11
c0 -3 -6 -12 -14 -20 -8 -7 -16 -19 -19 -26 -2 -7 -8 -10 -12 -6 -4 4 1 18 12
32 17 24 33 33 33 20z m129 -73 c40 3 65 -7 56 -21 -8 -13 -102 -5 -120 10
-10 8 -13 21 -9 39 11 45 18 47 27 8 9 -36 11 -38 46 -36z m78 23 c-3 -3 -12
-4 -19 -1 -8 3 -5 6 6 6 11 1 17 -2 13 -5z m749 -5 c55 -14 58 -30 5 -25 -43
4 -61 12 -61 27 0 11 2 11 56 -2z m29 -59 c-3 -5 -11 -10 -16 -10 -6 0 -7 5
-4 10 3 6 11 10 16 10 6 0 7 -4 4 -10z m-45 -40 c0 -5 -4 -10 -10 -10 -5 0
-10 5 -10 10 0 6 5 10 10 10 6 0 10 -4 10 -10z m77 -32 c35 -13 45 -41 17 -52
-12 -5 -15 -2 -11 13 4 15 -2 20 -29 26 -19 3 -32 10 -29 16 8 12 12 11 52 -3z
m-387 -38 c0 -5 -5 -10 -11 -10 -5 0 -7 5 -4 10 3 6 8 10 11 10 2 0 4 -4 4
-10z m595 -10 c8 -13 -15 -13 -35 0 -12 8 -11 10 7 10 12 0 25 -4 28 -10z
m259 -59 c-39 -60 -165 -221 -174 -221 -25 0 7 76 67 157 13 18 22 38 21 45
-2 7 8 14 22 16 13 2 35 13 49 23 32 25 38 17 15 -20z m-884 15 c0 -3 -5 -17
-10 -32 -8 -19 -14 -24 -21 -17 -8 8 -7 17 0 32 10 18 31 30 31 17z m508 -16
c11 -18 10 -20 -13 -20 -24 0 -34 18 -18 33 10 11 17 8 31 -13z m-285 -60 c-4
-4 -16 -5 -26 -1 -17 6 -17 9 5 36 l23 30 3 -29 c2 -16 0 -32 -5 -36z m-2653
20 c0 -5 -5 -10 -11 -10 -5 0 -7 5 -4 10 3 6 8 10 11 10 2 0 4 -4 4 -10z
m2820 -5 c0 -8 -4 -15 -9 -15 -5 0 -11 -10 -13 -22 -3 -23 -38 -39 -38 -18 0
14 41 70 52 70 4 0 8 -7 8 -15z m59 -21 c-6 -16 -13 -24 -16 -17 -5 13 16 58
23 50 3 -2 -1 -17 -7 -33z m-2845 -10 c3 -8 2 -12 -4 -9 -6 3 -10 10 -10 16 0
14 7 11 14 -7z m2442 7 c11 -11 292 -108 349 -121 80 -18 95 -23 101 -31 3 -5
18 -9 35 -9 16 0 29 -4 29 -10 0 -14 -24 -12 -120 11 -47 11 -103 24 -126 29
-36 8 -78 22 -219 72 -41 15 -96 53 -88 61 9 10 27 9 39 -2z m484 -41 c-8 -5
-19 -10 -25 -10 -5 0 -3 5 5 10 8 5 20 10 25 10 6 0 3 -5 -5 -10z m-40 -16 c0
-2 -9 -4 -20 -4 -11 0 -20 4 -20 9 0 5 9 7 20 4 11 -3 20 -7 20 -9z m500 -10
c0 -8 -5 -12 -10 -9 -6 4 -8 11 -5 16 9 14 15 11 15 -7z m-60 -5 c0 -5 -15
-16 -33 -24 -19 -8 -40 -24 -48 -36 -9 -12 -21 -20 -29 -17 -10 3 -9 9 7 24
11 10 23 27 26 37 4 10 11 15 17 12 5 -3 18 -1 27 4 23 13 33 14 33 0z m-3425
-8 c3 -5 1 -12 -5 -16 -5 -3 -10 1 -10 9 0 18 6 21 15 7z m4150 -68 c23 -56
31 -129 27 -238 -4 -114 -13 -150 -35 -142 -11 3 -19 397 -7 397 4 0 11 -8 15
-17z m-747 -23 c-7 -10 -14 -17 -17 -15 -4 4 18 35 25 35 2 0 -1 -9 -8 -20z
m-2728 -36 c0 -8 -4 -12 -10 -9 -5 3 -10 10 -10 16 0 5 5 9 10 9 6 0 10 -7 10
-16z m-581 -33 c-13 -36 -31 -44 -56 -25 -12 11 -13 14 -3 11 21 -6 50 11 50
28 0 8 4 15 9 15 6 0 6 -11 0 -29z m3072 16 c-1 -12 -15 -9 -19 4 -3 6 1 10 8
8 6 -3 11 -8 11 -12z m-2541 -7 c0 -5 -5 -10 -11 -10 -5 0 -7 5 -4 10 3 6 8
10 11 10 2 0 4 -4 4 -10z m190 3 c-8 -3 -23 -12 -32 -21 -11 -9 -18 -11 -18
-4 0 13 29 32 50 31 13 -1 13 -1 0 -6z m1858 -70 c2 -28 -6 -88 -18 -133 -24
-97 -26 -120 -8 -102 26 26 27 9 2 -39 -30 -56 -45 -51 -42 14 2 48 -7 55 -35
29 -35 -33 -64 -28 -84 13 -15 31 -15 43 -5 92 16 76 52 127 110 157 67 34 76
30 80 -31z m576 16 c34 -27 51 -58 38 -71 -6 -6 -19 3 -36 24 -14 18 -34 41
-43 51 -14 15 -14 17 -1 17 8 0 27 -9 42 -21z m-2664 -9 c0 -5 -5 -10 -11 -10
-5 0 -7 5 -4 10 3 6 8 10 11 10 2 0 4 -4 4 -10z m280 0 c0 -5 -4 -10 -10 -10
-5 0 -10 5 -10 10 0 6 5 10 10 10 6 0 10 -4 10 -10z m-395 -30 c3 -5 -1 -10
-9 -10 -9 0 -16 5 -16 10 0 6 4 10 9 10 6 0 13 -4 16 -10z m2482 -22 c16 -12
5 -38 -16 -38 -27 0 -45 -16 -35 -31 14 -24 12 -119 -3 -119 -16 0 -63 -95
-63 -126 0 -13 -4 -25 -10 -29 -14 -9 -58 5 -64 21 -8 22 95 311 120 337 8 8
54 -2 71 -15z m-2402 -8 c3 -5 1 -10 -4 -10 -6 0 -11 5 -11 10 0 6 2 10 4 10
3 0 8 -4 11 -10z m625 -14 c0 -12 -33 -36 -48 -36 -14 1 -12 5 7 20 21 19 41
26 41 16z m1590 -21 c-7 -9 -15 -13 -17 -11 -7 7 7 26 19 26 6 0 6 -6 -2 -15z
m-1913 -47 c-3 -8 -6 -5 -6 6 -1 11 2 17 5 13 3 -3 4 -12 1 -19z m1893 16 c0
-3 -9 -17 -20 -31 -21 -27 -27 -15 -10 18 10 18 30 27 30 13z m-2080 -51 c0
-7 -4 -13 -10 -13 -5 0 -10 12 -10 28 0 21 2 24 10 12 5 -8 10 -21 10 -27z
m375 -3 c3 -5 1 -10 -4 -10 -6 0 -11 5 -11 10 0 6 2 10 4 10 3 0 8 -4 11 -10z
m475 0 c0 -13 -11 -13 -30 0 -12 8 -11 10 8 10 12 0 22 -4 22 -10z m1190 -14
c0 -2 -7 -9 -15 -16 -12 -10 -15 -10 -15 4 0 9 7 16 15 16 8 0 15 -2 15 -4z
m407 -18 c-3 -8 -6 -5 -6 6 -1 11 2 17 5 13 3 -3 4 -12 1 -19z m-2342 2 c3 -5
1 -10 -4 -10 -6 0 -11 5 -11 10 0 6 2 10 4 10 3 0 8 -4 11 -10z m72 -15 c-4
-8 -17 -15 -29 -15 l-23 1 24 20 c26 21 37 19 28 -6z m963 -45 c0 -5 -4 -10
-9 -10 -6 0 -13 5 -16 10 -3 6 1 10 9 10 9 0 16 -4 16 -10z m-650 -72 c0 -16
-3 -19 -11 -11 -6 6 -8 16 -5 22 11 17 16 13 16 -11z m1973 -42 c-3 -17 -11
-40 -17 -51 -10 -19 -11 -19 -14 4 -2 13 -1 45 3 70 6 41 8 44 20 27 9 -11 12
-30 8 -50z m-1726 -18 c-3 -8 -6 -5 -6 6 -1 11 2 17 5 13 3 -3 4 -12 1 -19z
m1060 -95 c4 -12 -35 -38 -44 -30 -2 3 2 15 9 26 13 22 29 23 35 4z m128 -33
c3 -5 -1 -10 -9 -10 -9 0 -16 5 -16 10 0 6 4 10 9 10 6 0 13 -4 16 -10z m-775
-14 c0 -3 -4 -8 -10 -11 -5 -3 -10 -1 -10 4 0 6 5 11 10 11 6 0 10 -2 10 -4z
m-30 -27 c0 -19 -23 -20 -42 -2 -19 20 -19 20 11 15 17 -2 31 -8 31 -13z
m1276 -74 c3 -13 4 -30 1 -37 -3 -7 -6 -3 -6 10 -1 15 -7 22 -21 22 -20 0 -26
11 -13 23 14 15 33 6 39 -18z m-549 -67 c-3 -8 -6 -5 -6 6 -1 11 2 17 5 13 3
-3 4 -12 1 -19z m-67 -9 c0 -5 -4 -9 -10 -9 -5 0 -10 7 -10 16 0 8 5 12 10 9
6 -3 10 -10 10 -16z m74 -62 c4 -19 3 -26 -4 -22 -5 3 -10 18 -10 32 0 32 5
28 14 -10z m76 -17 c0 -5 -5 -10 -11 -10 -5 0 -7 5 -4 10 3 6 8 10 11 10 2 0
4 -4 4 -10z m-20 -41 c0 -17 -23 -21 -37 -6 -13 13 -12 15 11 15 14 0 26 -4
26 -9z m434 -50 c-7 -11 -34 -12 -34 -1 0 14 11 21 26 15 8 -3 11 -9 8 -14z
m626 -598 c0 -6 -4 -13 -10 -16 -5 -3 -10 1 -10 9 0 9 5 16 10 16 6 0 10 -4
10 -9z"/>
<path d="M4688 1713 c-45 -50 -74 -144 -52 -166 11 -11 35 5 49 33 52 101 54
190 3 133z"/>
</g>
</svg>
